<svg xmlns="http://www.w3.org/2000/svg" viewBox="0 0 430 860" role="img" aria-labelledby="title desc">
  <title id="title">Tela inicial VOLT Consumo</title>
  <desc id="desc">Demonstração da tela inicial do projeto VOLT baseada na interface real do aplicativo.</desc>
  <defs>
    <linearGradient id="bg" x1="0" y1="0" x2="0" y2="1"><stop stop-color="#082a2a"/><stop offset="1" stop-color="#041a1b"/></linearGradient>
    <linearGradient id="green" x1="0" y1="0" x2="1" y2="1"><stop stop-color="#83f0bb"/><stop offset="1" stop-color="#4dd59b"/></linearGradient>
    <filter id="shadow" x="-20%" y="-20%" width="140%" height="140%"><feDropShadow dx="0" dy="10" stdDeviation="12" flood-color="#000" flood-opacity=".22"/></filter>
  </defs>
  <rect width="430" height="860" rx="36" fill="url(#bg)"/>
  <rect x="0" y="0" width="430" height="46" fill="#071d1e"/>
  <text x="24" y="29" font-family="Arial,sans-serif" font-size="13" font-weight="700" fill="#eaf7f3">20:29</text>
  <g transform="translate(24 67)">
    <text x="0" y="0" dominant-baseline="hanging" font-family="Arial,sans-serif" font-size="14" font-weight="800" letter-spacing="1.6" fill="#67e6aa">VOLT CONSUMO</text>
    <rect x="132" y="-3" width="58" height="24" rx="12" fill="#164c3f"/><text x="161" y="13" text-anchor="middle" font-family="Arial,sans-serif" font-size="10" font-weight="800" fill="#84efb7">BETA V3</text>
    <text x="0" y="40" font-family="Arial,sans-serif" font-size="27" font-weight="800" fill="#fff">Olá, Henrique Ribeiro!</text>
    <circle cx="352" cy="25" r="22" fill="#103132" stroke="#1b4b48"/><path d="M347 16a10 10 0 1 0 12 14 12 12 0 0 1-12-14z" fill="#d7eee9"/>
  </g>
  <g transform="translate(24 155)">
    <text x="0" y="0" font-family="Arial,sans-serif" font-size="10" font-weight="800" letter-spacing="1.4" fill="#62dea3">CICLO DE CONTAGEM</text>
    <text x="0" y="30" font-family="Arial,sans-serif" font-size="22" font-weight="800" fill="#fff">Ciclo atual</text>
    <text x="0" y="53" font-family="Arial,sans-serif" font-size="12" fill="#9ab5b0">17 de jul – 16 de ago</text>
  </g>
  <g filter="url(#shadow)" transform="translate(24 228)">
    <rect width="382" height="142" rx="24" fill="#0d3031" stroke="#174545"/>
    <rect x="18" y="18" width="40" height="40" rx="13" fill="#113b46"/><circle cx="38" cy="38" r="10" fill="#53bcea"/>
    <text x="70" y="38" font-family="Arial,sans-serif" font-size="17" font-weight="800" fill="#fff">Água</text>
    <text x="18" y="82" font-family="Arial,sans-serif" font-size="11" fill="#93aba8">Consumo</text><text x="18" y="112" font-family="Arial,sans-serif" font-size="27" font-weight="800" fill="#fff">0 m³</text>
    <line x1="196" y1="72" x2="196" y2="120" stroke="#315052"/>
    <text x="220" y="82" font-family="Arial,sans-serif" font-size="11" fill="#93aba8">Estimativa</text><text x="220" y="112" font-family="Arial,sans-serif" font-size="27" font-weight="800" fill="#fff">R$ 0,00</text>
  </g>
  <g filter="url(#shadow)" transform="translate(24 386)">
    <rect width="382" height="154" rx="24" fill="#0d3031" stroke="#205347"/>
    <rect x="18" y="18" width="40" height="40" rx="13" fill="#173c31"/><path d="M40 24l-10 16h8l-4 13 13-19h-8z" fill="#82eeb6"/>
    <text x="70" y="38" font-family="Arial,sans-serif" font-size="17" font-weight="800" fill="#fff">Energia</text>
    <text x="18" y="84" font-family="Arial,sans-serif" font-size="11" fill="#93aba8">Consumo</text><text x="18" y="116" font-family="Arial,sans-serif" font-size="29" font-weight="800" fill="#fff">131 kWh</text>
    <line x1="196" y1="76" x2="196" y2="128" stroke="#315052"/>
    <text x="220" y="84" font-family="Arial,sans-serif" font-size="11" fill="#93aba8">Estimativa</text><text x="220" y="116" font-family="Arial,sans-serif" font-size="27" font-weight="800" fill="#7ce5ad">R$ 127,86</text>
  </g>
  <g transform="translate(24 570)">
    <text x="0" y="0" font-family="Arial,sans-serif" font-size="10" font-weight="800" letter-spacing="1.4" fill="#62dea3">RESUMO FINANCEIRO</text>
    <text x="0" y="33" font-family="Arial,sans-serif" font-size="16" fill="#d2e3df">Total estimado</text>
    <text x="0" y="76" font-family="Arial,sans-serif" font-size="39" font-weight="800" fill="#fff">R$ 127,86</text>
    <g transform="translate(0 94)"><rect width="116" height="72" rx="17" fill="#0d3031"/><text x="14" y="25" font-family="Arial,sans-serif" font-size="10" fill="#93aba8">Energia</text><text x="14" y="51" font-family="Arial,sans-serif" font-size="15" font-weight="800" fill="#fff">R$ 148,43</text></g>
    <g transform="translate(130 94)"><rect width="116" height="72" rx="17" fill="#0d3031"/><text x="14" y="25" font-family="Arial,sans-serif" font-size="10" fill="#93aba8">Água</text><text x="14" y="51" font-family="Arial,sans-serif" font-size="15" font-weight="800" fill="#fff">R$ 0,00</text></g>
    <g transform="translate(260 94)"><rect width="116" height="72" rx="17" fill="#113b32" stroke="#245b4a"/><text x="14" y="25" font-family="Arial,sans-serif" font-size="10" fill="#9ab9ad">Total geral</text><text x="14" y="51" font-family="Arial,sans-serif" font-size="15" font-weight="800" fill="#7ce5ad">R$ 148,43</text></g>
  </g>
  <g transform="translate(16 770)">
    <rect width="398" height="68" rx="25" fill="#092627" stroke="#174243"/>
    <g transform="translate(18 10)"><rect width="68" height="48" rx="17" fill="url(#green)"/><path d="M25 27v-9l9-7 9 7v9h-6v-7h-6v7z" fill="#082a23"/><text x="34" y="43" text-anchor="middle" font-family="Arial,sans-serif" font-size="8" font-weight="800" fill="#082a23">Início</text></g>
    <g transform="translate(101 18)" fill="#b5c9c5" font-family="Arial,sans-serif"><text x="0" y="12" font-size="15">☷</text><text x="-8" y="35" font-size="8">Leituras</text></g>
    <g transform="translate(177 18)" fill="#b5c9c5" font-family="Arial,sans-serif"><text x="6" y="12" font-size="15">▥</text><text x="-4" y="35" font-size="8">Relatórios</text></g>
    <g transform="translate(257 18)" fill="#b5c9c5" font-family="Arial,sans-serif"><text x="7" y="12" font-size="15">●</text><text x="0" y="35" font-size="8">Usuários</text></g>
    <g transform="translate(332 18)" fill="#b5c9c5" font-family="Arial,sans-serif"><text x="8" y="12" font-size="15">⚙</text><text x="-6" y="35" font-size="8">Config.</text></g>
  </g>
</svg>